<svg viewBox="0 0 64 64" fill="none" xmlns="http://www.w3.org/2000/svg">
  <rect width="64" height="64" rx="14" fill="white" />
  <g transform="translate(5 9.25) scale(0.264) translate(-349.594 -488.992)">
    <path d="M400.316 525.172V494.701C400.316 491.554 402.878 489.007 406.025 489.026L519.496 489.701C581.924 488.992 584.407 582.988 519.496 576.603C583.697 590.082 574.83 654.638 512.402 661.377H405.992C402.857 661.377 400.316 658.836 400.316 655.702V646.125C400.316 642.991 402.857 640.45 405.992 640.45H450.494C451.32 640.45 452.141 640.27 452.887 639.914C457.924 637.509 460.942 635.588 462.571 633.369C464.424 630.844 461.625 628.035 458.494 628.035H405.992C402.857 628.035 400.316 625.494 400.316 622.36V591.501C400.316 588.367 402.857 585.826 405.992 585.826H447.928C448.51 585.826 449.092 585.688 449.672 585.643C453.59 585.333 449.588 594.552 444.391 606.747C442.808 610.462 445.539 614.557 449.577 614.557H502.755C503.272 614.557 503.791 614.493 504.279 614.323C511.893 611.659 512.145 602.779 505.036 595.997C504.102 595.107 502.832 594.686 501.542 594.686H468.419C465.912 595.034 465.953 592.636 470.113 582.926C471.744 579.119 469.012 574.83 464.871 574.83H405.992C402.857 574.83 400.316 572.289 400.316 569.155V548.582C400.316 545.448 402.857 542.907 405.992 542.907H444.923C447.61 542.907 449.565 545.455 448.87 548.05C448.174 550.645 450.13 553.193 452.816 553.193H498.964C499.87 553.193 500.774 552.988 501.547 552.517C510.852 546.848 509.986 536.189 501.46 531.418C500.74 531.015 499.915 530.847 499.089 530.847H405.992C402.857 530.847 400.316 528.306 400.316 525.172Z" fill="url(#paint0_linear)" />
    <path d="M551.419 499.988L499.988 530.847C508.146 536.522 512.402 544.68 500.697 553.193L520.206 576.603C577.667 581.214 575.184 516.659 551.419 499.988Z" fill="url(#paint1_linear)" />
    <rect x="349.594" y="488.992" width="45.4018" height="14.8975" rx="6.38463" fill="#1FAAEB" />
    <rect x="360.235" y="586.18" width="34.7608" height="13.4787" rx="6.38463" fill="#C74AAD" />
    <rect x="373.004" y="529.428" width="21.9915" height="12.0599" rx="6.02993" fill="#5389E0" />
    <rect x="373.004" y="649.317" width="21.9915" height="12.0599" rx="6.02993" fill="#FB9D3B" />
    <path d="M444.689 488.992H402.09C400.915 488.992 399.962 489.945 399.962 491.12V528.719C399.962 529.894 400.915 530.847 402.09 530.847H462.568C464.131 530.847 465.161 529.217 464.49 527.805L446.611 490.206C446.258 489.465 445.51 488.992 444.689 488.992Z" fill="url(#paint2_linear)" />
    <path d="M461.94 530.847L445.009 488.992C526.945 487.218 547.872 488.283 554.257 504.954L500.431 530.847H461.94Z" fill="url(#paint3_linear)" />
  </g>
  <defs>
    <linearGradient id="paint0_linear" x1="483.784" y1="488.992" x2="483.784" y2="661.377" gradientUnits="userSpaceOnUse">
      <stop stop-color="#E33E4B" />
      <stop offset="0.4375" stop-color="#F9A833" />
      <stop offset="1" stop-color="#54288A" />
    </linearGradient>
    <linearGradient id="paint1_linear" x1="533.621" y1="499.988" x2="533.621" y2="576.838" gradientUnits="userSpaceOnUse">
      <stop stop-color="#FDB72B" />
      <stop offset="1" stop-color="#F67927" />
    </linearGradient>
    <linearGradient id="paint2_linear" x1="452.812" y1="505.308" x2="403.154" y2="505.308" gradientUnits="userSpaceOnUse">
      <stop stop-color="#9ECAB3" />
      <stop offset="1" stop-color="#2998E8" />
    </linearGradient>
    <linearGradient id="paint3_linear" x1="534.748" y1="503.89" x2="450.684" y2="503.89" gradientUnits="userSpaceOnUse">
      <stop stop-color="#FBBB3B" />
      <stop offset="0.813604" stop-color="#CFCB8C" />
    </linearGradient>
  </defs>
</svg>
